<?xml version="1.0" encoding="utf-8" standalone="no"?>
<!DOCTYPE svg PUBLIC "-//W3C//DTD SVG 1.1//EN"
  "http://www.w3.org/Graphics/SVG/1.1/DTD/svg11.dtd">
<svg xmlns:xlink="http://www.w3.org/1999/xlink" width="176.240285pt" height="111.966184pt" viewBox="0 0 176.240285 111.966184" xmlns="http://www.w3.org/2000/svg" version="1.1">
 <metadata>
  <rdf:RDF xmlns:dc="http://purl.org/dc/elements/1.1/" xmlns:cc="http://creativecommons.org/ns#" xmlns:rdf="http://www.w3.org/1999/02/22-rdf-syntax-ns#">
   <cc:Work>
    <dc:type rdf:resource="http://purl.org/dc/dcmitype/StillImage"/>
    <dc:date>2026-07-28T23:52:23.445648</dc:date>
    <dc:format>image/svg+xml</dc:format>
    <dc:creator>
     <cc:Agent>
      <dc:title>Matplotlib v3.10.7, https://matplotlib.org/</dc:title>
     </cc:Agent>
    </dc:creator>
   </cc:Work>
  </rdf:RDF>
 </metadata>
 <defs>
  <style type="text/css">*{stroke-linejoin: round; stroke-linecap: butt}</style>
 </defs>
 <g id="figure_1">
  <g id="patch_1">
   <path d="M 0 111.966184 
L 176.240285 111.966184 
L 176.240285 -0 
L 0 -0 
z
" style="fill: #ffffff"/>
  </g>
  <g id="axes_1">
   <g id="patch_2">
    <path d="M 10.20375 102.844465 
L 175.520285 102.844465 
L 175.520285 32.091709 
L 10.20375 32.091709 
z
" style="fill: #ffffff"/>
   </g>
   <g id="patch_3">
    <path d="M 10.20375 102.844465 
L 10.20375 102.844465 
L 11.592965 102.844465 
L 11.592965 102.844465 
L 12.982179 102.844465 
L 12.982179 102.844465 
L 14.371394 102.844465 
L 14.371394 102.844465 
L 15.760608 102.844465 
L 15.760608 102.844465 
L 17.149823 102.844465 
L 17.149823 102.844465 
L 18.539038 102.844465 
L 18.539038 102.844465 
L 19.928252 102.844465 
L 19.928252 102.844465 
L 21.317467 102.844465 
L 21.317467 102.844465 
L 22.706681 102.844465 
L 22.706681 102.844465 
L 24.095896 102.844465 
L 24.095896 102.844465 
L 25.48511 102.844465 
L 25.48511 102.844465 
L 26.874325 102.844465 
L 26.874325 102.844465 
L 28.26354 102.844465 
L 28.26354 102.844465 
L 29.652754 102.844465 
L 29.652754 102.844465 
L 31.041969 102.844465 
L 31.041969 102.844465 
L 32.431183 102.844465 
L 32.431183 102.844465 
L 33.820398 102.844465 
L 33.820398 102.844465 
L 35.209613 102.844465 
L 35.209613 102.843348 
L 36.598827 102.843348 
L 36.598827 102.844465 
L 37.988042 102.844465 
L 37.988042 102.844465 
L 39.377256 102.844465 
L 39.377256 102.842232 
L 40.766471 102.842232 
L 40.766471 102.841115 
L 42.155685 102.841115 
L 42.155685 102.835531 
L 43.5449 102.835531 
L 43.5449 102.834414 
L 44.934115 102.834414 
L 44.934115 102.837764 
L 46.323329 102.837764 
L 46.323329 102.82883 
L 47.712544 102.82883 
L 47.712544 102.812077 
L 49.101758 102.812077 
L 49.101758 102.817661 
L 50.490973 102.817661 
L 50.490973 102.803142 
L 51.880188 102.803142 
L 51.880188 102.793091 
L 53.269402 102.793091 
L 53.269402 102.768521 
L 54.658617 102.768521 
L 54.658617 102.729431 
L 56.047831 102.729431 
L 56.047831 102.67694 
L 57.437046 102.67694 
L 57.437046 102.627799 
L 58.82626 102.627799 
L 58.82626 102.5217 
L 60.215475 102.5217 
L 60.215475 102.447989 
L 61.60469 102.447989 
L 61.60469 102.274879 
L 62.993904 102.274879 
L 62.993904 102.030292 
L 64.383119 102.030292 
L 64.383119 101.632699 
L 65.772333 101.632699 
L 65.772333 101.074282 
L 67.161548 101.074282 
L 67.161548 100.274628 
L 68.550763 100.274628 
L 68.550763 98.935542 
L 69.939977 98.935542 
L 69.939977 97.434516 
L 71.329192 97.434516 
L 71.329192 95.110382 
L 72.718406 95.110382 
L 72.718406 92.797416 
L 74.107621 92.797416 
L 74.107621 89.517271 
L 75.496835 89.517271 
L 75.496835 85.313503 
L 76.88605 85.313503 
L 76.88605 81.570989 
L 78.275265 81.570989 
L 78.275265 76.988614 
L 79.664479 76.988614 
L 79.664479 72.544727 
L 81.053694 72.544727 
L 81.053694 67.57481 
L 82.442908 67.57481 
L 82.442908 63.582124 
L 83.832123 63.582124 
L 83.832123 59.153873 
L 85.221338 59.153873 
L 85.221338 55.292973 
L 86.610552 55.292973 
L 86.610552 51.929066 
L 87.999767 51.929066 
L 87.999767 48.629935 
L 89.388981 48.629935 
L 89.388981 46.663188 
L 90.778196 46.663188 
L 90.778196 45.363192 
L 92.16741 45.363192 
L 92.16741 44.388195 
L 93.556625 44.388195 
L 93.556625 43.634331 
L 94.94584 43.634331 
L 94.94584 43.524881 
L 96.335054 43.524881 
L 96.335054 44.659585 
L 97.724269 44.659585 
L 97.724269 48.519368 
L 99.113483 48.519368 
L 99.113483 56.987212 
L 100.502698 56.987212 
L 100.502698 62.276544 
L 101.891913 62.276544 
L 101.891913 65.5176 
L 103.281127 65.5176 
L 103.281127 70.078754 
L 104.670342 70.078754 
L 104.670342 74.189825 
L 106.059556 74.189825 
L 106.059556 78.284143 
L 107.448771 78.284143 
L 107.448771 82.532584 
L 108.837985 82.532584 
L 108.837985 86.37673 
L 110.2272 86.37673 
L 110.2272 89.391069 
L 111.616415 89.391069 
L 111.616415 92.575166 
L 113.005629 92.575166 
L 113.005629 94.803252 
L 114.394844 94.803252 
L 114.394844 97.0023 
L 115.784058 97.0023 
L 115.784058 98.549117 
L 117.173273 98.549117 
L 117.173273 99.683822 
L 118.562488 99.683822 
L 118.562488 100.617496 
L 119.951702 100.617496 
L 119.951702 101.241807 
L 121.340917 101.241807 
L 121.340917 101.781238 
L 122.730131 101.781238 
L 122.730131 102.01354 
L 124.119346 102.01354 
L 124.119346 102.294982 
L 125.50856 102.294982 
L 125.50856 102.481494 
L 126.897775 102.481494 
L 126.897775 102.590944 
L 128.28699 102.590944 
L 128.28699 102.665772 
L 129.676204 102.665772 
L 129.676204 102.721613 
L 131.065419 102.721613 
L 131.065419 102.774105 
L 132.454633 102.774105 
L 132.454633 102.795325 
L 133.843848 102.795325 
L 133.843848 102.823245 
L 135.233063 102.823245 
L 135.233063 102.82883 
L 136.622277 102.82883 
L 136.622277 102.835531 
L 138.011492 102.835531 
L 138.011492 102.83218 
L 139.400706 102.83218 
L 139.400706 102.842232 
L 140.789921 102.842232 
L 140.789921 102.842232 
L 142.179135 102.842232 
L 142.179135 102.841115 
L 143.56835 102.841115 
L 143.56835 102.842232 
L 144.957565 102.842232 
L 144.957565 102.842232 
L 146.346779 102.842232 
L 146.346779 102.844465 
L 147.735994 102.844465 
L 147.735994 102.844465 
L 149.125208 102.844465 
L 149.125208 102.844465 
L 150.514423 102.844465 
L 150.514423 102.844465 
L 151.903638 102.844465 
L 151.903638 102.844465 
L 153.292852 102.844465 
L 153.292852 102.844465 
L 154.682067 102.844465 
L 154.682067 102.844465 
L 156.071281 102.844465 
L 156.071281 102.844465 
L 157.460496 102.844465 
L 157.460496 102.844465 
L 158.84971 102.844465 
L 158.84971 102.844465 
L 160.238925 102.844465 
L 160.238925 102.844465 
L 161.62814 102.844465 
L 161.62814 102.844465 
L 163.017354 102.844465 
L 163.017354 102.844465 
L 164.406569 102.844465 
L 164.406569 102.844465 
L 165.795783 102.844465 
L 165.795783 102.844465 
L 167.184998 102.844465 
L 167.184998 102.844465 
L 168.574213 102.844465 
L 168.574213 102.844465 
L 169.963427 102.844465 
L 169.963427 102.844465 
L 171.352642 102.844465 
L 171.352642 102.844465 
L 172.741856 102.844465 
L 172.741856 102.844465 
L 174.131071 102.844465 
L 174.131071 102.844465 
L 175.520285 102.844465 
L 175.520285 102.844465 
" clip-path="url(#pc3446a8a52)" style="fill: #8cb9e8; opacity: 0.42"/>
   </g>
   <g id="patch_4">
    <path d="M 10.20375 102.844465 
L 10.20375 102.844465 
L 11.592965 102.844465 
L 11.592965 102.844465 
L 12.982179 102.844465 
L 12.982179 102.844465 
L 14.371394 102.844465 
L 14.371394 102.844465 
L 15.760608 102.844465 
L 15.760608 102.844465 
L 17.149823 102.844465 
L 17.149823 102.844465 
L 18.539038 102.844465 
L 18.539038 102.844465 
L 19.928252 102.844465 
L 19.928252 102.844465 
L 21.317467 102.844465 
L 21.317467 102.844465 
L 22.706681 102.844465 
L 22.706681 102.844465 
L 24.095896 102.844465 
L 24.095896 102.844465 
L 25.48511 102.844465 
L 25.48511 102.844465 
L 26.874325 102.844465 
L 26.874325 102.844465 
L 28.26354 102.844465 
L 28.26354 102.844465 
L 29.652754 102.844465 
L 29.652754 102.844465 
L 31.041969 102.844465 
L 31.041969 102.844465 
L 32.431183 102.844465 
L 32.431183 102.844465 
L 33.820398 102.844465 
L 33.820398 102.844465 
L 35.209613 102.844465 
L 35.209613 102.843348 
L 36.598827 102.843348 
L 36.598827 102.844465 
L 37.988042 102.844465 
L 37.988042 102.844465 
L 39.377256 102.844465 
L 39.377256 102.842232 
L 40.766471 102.842232 
L 40.766471 102.841115 
L 42.155685 102.841115 
L 42.155685 102.835531 
L 43.5449 102.835531 
L 43.5449 102.834414 
L 44.934115 102.834414 
L 44.934115 102.837764 
L 46.323329 102.837764 
L 46.323329 102.82883 
L 47.712544 102.82883 
L 47.712544 102.812077 
L 49.101758 102.812077 
L 49.101758 102.817661 
L 50.490973 102.817661 
L 50.490973 102.803142 
L 51.880188 102.803142 
L 51.880188 102.793091 
L 53.269402 102.793091 
L 53.269402 102.768521 
L 54.658617 102.768521 
L 54.658617 102.729431 
L 56.047831 102.729431 
L 56.047831 102.67694 
L 57.437046 102.67694 
L 57.437046 102.627799 
L 58.82626 102.627799 
L 58.82626 102.5217 
L 60.215475 102.5217 
L 60.215475 102.447989 
L 61.60469 102.447989 
L 61.60469 102.274879 
L 62.993904 102.274879 
L 62.993904 102.030292 
L 64.383119 102.030292 
L 64.383119 101.632699 
L 65.772333 101.632699 
L 65.772333 101.074282 
L 67.161548 101.074282 
L 67.161548 100.274628 
L 68.550763 100.274628 
L 68.550763 98.935542 
L 69.939977 98.935542 
L 69.939977 97.434516 
L 71.329192 97.434516 
L 71.329192 95.110382 
L 72.718406 95.110382 
L 72.718406 92.797416 
L 74.107621 92.797416 
L 74.107621 89.517271 
L 75.496835 89.517271 
L 75.496835 85.313503 
L 76.88605 85.313503 
L 76.88605 81.570989 
L 78.275265 81.570989 
L 78.275265 76.988614 
L 79.664479 76.988614 
L 79.664479 72.544727 
L 81.053694 72.544727 
L 81.053694 67.57481 
L 82.442908 67.57481 
L 82.442908 63.582124 
L 83.832123 63.582124 
L 83.832123 59.153873 
L 85.221338 59.153873 
L 85.221338 55.292973 
L 86.610552 55.292973 
L 86.610552 51.929066 
L 87.999767 51.929066 
L 87.999767 48.629935 
L 89.388981 48.629935 
L 89.388981 46.663188 
L 90.778196 46.663188 
L 90.778196 45.363192 
L 92.16741 45.363192 
L 92.16741 44.388195 
L 93.556625 44.388195 
L 93.556625 43.634331 
L 94.94584 43.634331 
L 94.94584 43.524881 
L 96.335054 43.524881 
L 96.335054 44.659585 
L 97.724269 44.659585 
L 97.724269 48.519368 
L 99.113483 48.519368 
L 99.113483 56.987212 
L 100.502698 56.987212 
L 100.502698 62.276544 
L 101.891913 62.276544 
L 101.891913 65.5176 
L 103.281127 65.5176 
L 103.281127 70.078754 
L 104.670342 70.078754 
L 104.670342 74.189825 
L 106.059556 74.189825 
L 106.059556 78.284143 
L 107.448771 78.284143 
L 107.448771 82.532584 
L 108.837985 82.532584 
L 108.837985 86.37673 
L 110.2272 86.37673 
L 110.2272 89.391069 
L 111.616415 89.391069 
L 111.616415 92.575166 
L 113.005629 92.575166 
L 113.005629 94.803252 
L 114.394844 94.803252 
L 114.394844 97.0023 
L 115.784058 97.0023 
L 115.784058 98.549117 
L 117.173273 98.549117 
L 117.173273 99.683822 
L 118.562488 99.683822 
L 118.562488 100.617496 
L 119.951702 100.617496 
L 119.951702 101.241807 
L 121.340917 101.241807 
L 121.340917 101.781238 
L 122.730131 101.781238 
L 122.730131 102.01354 
L 124.119346 102.01354 
L 124.119346 102.294982 
L 125.50856 102.294982 
L 125.50856 102.481494 
L 126.897775 102.481494 
L 126.897775 102.590944 
L 128.28699 102.590944 
L 128.28699 102.665772 
L 129.676204 102.665772 
L 129.676204 102.721613 
L 131.065419 102.721613 
L 131.065419 102.774105 
L 132.454633 102.774105 
L 132.454633 102.795325 
L 133.843848 102.795325 
L 133.843848 102.823245 
L 135.233063 102.823245 
L 135.233063 102.82883 
L 136.622277 102.82883 
L 136.622277 102.835531 
L 138.011492 102.835531 
L 138.011492 102.83218 
L 139.400706 102.83218 
L 139.400706 102.842232 
L 140.789921 102.842232 
L 140.789921 102.842232 
L 142.179135 102.842232 
L 142.179135 102.841115 
L 143.56835 102.841115 
L 143.56835 102.842232 
L 144.957565 102.842232 
L 144.957565 102.842232 
L 146.346779 102.842232 
L 146.346779 102.844465 
L 147.735994 102.844465 
L 147.735994 102.844465 
L 149.125208 102.844465 
L 149.125208 102.844465 
L 150.514423 102.844465 
L 150.514423 102.844465 
L 151.903638 102.844465 
L 151.903638 102.844465 
L 153.292852 102.844465 
L 153.292852 102.844465 
L 154.682067 102.844465 
L 154.682067 102.844465 
L 156.071281 102.844465 
L 156.071281 102.844465 
L 157.460496 102.844465 
L 157.460496 102.844465 
L 158.84971 102.844465 
L 158.84971 102.844465 
L 160.238925 102.844465 
L 160.238925 102.844465 
L 161.62814 102.844465 
L 161.62814 102.844465 
L 163.017354 102.844465 
L 163.017354 102.844465 
L 164.406569 102.844465 
L 164.406569 102.844465 
L 165.795783 102.844465 
L 165.795783 102.844465 
L 167.184998 102.844465 
L 167.184998 102.844465 
L 168.574213 102.844465 
L 168.574213 102.844465 
L 169.963427 102.844465 
L 169.963427 102.844465 
L 171.352642 102.844465 
L 171.352642 102.844465 
L 172.741856 102.844465 
L 172.741856 102.844465 
L 174.131071 102.844465 
L 174.131071 102.844465 
L 175.520285 102.844465 
L 175.520285 102.844465 
" clip-path="url(#pc3446a8a52)" style="fill: none; stroke: #316fa8; stroke-width: 1.15; stroke-linejoin: miter"/>
   </g>
   <g id="patch_5">
    <path d="M 10.20375 102.844465 
L 10.20375 102.617401 
L 11.592965 102.617401 
L 11.592965 102.553644 
L 12.982179 102.553644 
L 12.982179 102.477583 
L 14.371394 102.477583 
L 14.371394 102.442908 
L 15.760608 102.442908 
L 15.760608 102.366847 
L 17.149823 102.366847 
L 17.149823 102.25723 
L 18.539038 102.25723 
L 18.539038 102.169984 
L 19.928252 102.169984 
L 19.928252 102.069315 
L 21.317467 102.069315 
L 21.317467 101.914956 
L 22.706681 101.914956 
L 22.706681 101.861266 
L 24.095896 101.861266 
L 24.095896 101.695721 
L 25.48511 101.695721 
L 25.48511 101.477606 
L 26.874325 101.477606 
L 26.874325 101.345617 
L 28.26354 101.345617 
L 28.26354 101.121909 
L 29.652754 101.121909 
L 29.652754 100.977617 
L 31.041969 100.977617 
L 31.041969 100.720352 
L 32.431183 100.720352 
L 32.431183 100.577178 
L 33.820398 100.577178 
L 33.820398 100.387026 
L 35.209613 100.387026 
L 35.209613 100.022381 
L 36.598827 100.022381 
L 36.598827 99.729322 
L 37.988042 99.729322 
L 37.988042 99.432909 
L 39.377256 99.432909 
L 39.377256 99.081686 
L 40.766471 99.081686 
L 40.766471 98.824421 
L 42.155685 98.824421 
L 42.155685 98.419508 
L 43.5449 98.419508 
L 43.5449 97.995581 
L 44.934115 97.995581 
L 44.934115 97.380382 
L 46.323329 97.380382 
L 46.323329 97.273002 
L 47.712544 97.273002 
L 47.712544 96.733864 
L 49.101758 96.733864 
L 49.101758 96.163407 
L 50.490973 96.163407 
L 50.490973 95.768561 
L 51.880188 95.768561 
L 51.880188 95.204815 
L 53.269402 95.204815 
L 53.269402 94.425191 
L 54.658617 94.425191 
L 54.658617 94.071731 
L 56.047831 94.071731 
L 56.047831 93.675767 
L 57.437046 93.675767 
L 57.437046 92.896142 
L 58.82626 92.896142 
L 58.82626 92.29101 
L 60.215475 92.29101 
L 60.215475 91.240698 
L 61.60469 91.240698 
L 61.60469 90.628855 
L 62.993904 90.628855 
L 62.993904 90.003589 
L 64.383119 90.003589 
L 64.383119 89.294433 
L 65.772333 89.294433 
L 65.772333 88.622188 
L 67.161548 88.622188 
L 67.161548 87.841445 
L 68.550763 87.841445 
L 68.550763 87.036094 
L 69.939977 87.036094 
L 69.939977 86.321345 
L 71.329192 86.321345 
L 71.329192 85.652456 
L 72.718406 85.652456 
L 72.718406 85.051799 
L 74.107621 85.051799 
L 74.107621 84.717354 
L 75.496835 84.717354 
L 75.496835 84.115578 
L 76.88605 84.115578 
L 76.88605 83.51492 
L 78.275265 83.51492 
L 78.275265 83.140208 
L 79.664479 83.140208 
L 79.664479 82.54738 
L 81.053694 82.54738 
L 81.053694 81.967975 
L 82.442908 81.967975 
L 82.442908 81.77223 
L 83.832123 81.77223 
L 83.832123 81.445615 
L 85.221338 81.445615 
L 85.221338 81.060836 
L 86.610552 81.060836 
L 86.610552 80.447875 
L 87.999767 80.447875 
L 87.999767 80.435571 
L 89.388981 80.435571 
L 89.388981 80.187254 
L 90.778196 80.187254 
L 90.778196 79.730888 
L 92.16741 79.730888 
L 92.16741 79.950123 
L 93.556625 79.950123 
L 93.556625 79.995983 
L 94.94584 79.995983 
L 94.94584 80.224166 
L 96.335054 80.224166 
L 96.335054 80.166002 
L 97.724269 80.166002 
L 97.724269 80.300227 
L 99.113483 80.300227 
L 99.113483 80.833772 
L 100.502698 80.833772 
L 100.502698 80.959049 
L 101.891913 80.959049 
L 101.891913 81.558588 
L 103.281127 81.558588 
L 103.281127 81.811379 
L 104.670342 81.811379 
L 104.670342 82.49369 
L 106.059556 82.49369 
L 106.059556 82.877351 
L 107.448771 82.877351 
L 107.448771 83.164816 
L 108.837985 83.164816 
L 108.837985 84.077547 
L 110.2272 84.077547 
L 110.2272 84.891847 
L 111.616415 84.891847 
L 111.616415 85.762073 
L 113.005629 85.762073 
L 113.005629 85.985782 
L 114.394844 85.985782 
L 114.394844 86.895158 
L 115.784058 86.895158 
L 115.784058 87.483511 
L 117.173273 87.483511 
L 117.173273 88.171416 
L 118.562488 88.171416 
L 118.562488 88.918602 
L 119.951702 88.918602 
L 119.951702 89.829097 
L 121.340917 89.829097 
L 121.340917 90.308952 
L 122.730131 90.308952 
L 122.730131 91.260832 
L 124.119346 91.260832 
L 124.119346 91.863727 
L 125.50856 91.863727 
L 125.50856 92.310025 
L 126.897775 92.310025 
L 126.897775 93.157881 
L 128.28699 93.157881 
L 128.28699 93.685834 
L 129.676204 93.685834 
L 129.676204 94.249579 
L 131.065419 94.249579 
L 131.065419 94.892742 
L 132.454633 94.892742 
L 132.454633 95.296536 
L 133.843848 95.296536 
L 133.843848 95.701448 
L 135.233063 95.701448 
L 135.233063 96.273024 
L 136.622277 96.273024 
L 136.622277 96.468769 
L 138.011492 96.468769 
L 138.011492 96.960928 
L 139.400706 96.960928 
L 139.400706 97.154436 
L 140.789921 97.154436 
L 140.789921 97.722656 
L 142.179135 97.722656 
L 142.179135 98.284165 
L 143.56835 98.284165 
L 143.56835 98.408323 
L 144.957565 98.408323 
L 144.957565 98.897126 
L 146.346779 98.897126 
L 146.346779 99.196896 
L 147.735994 99.196896 
L 147.735994 99.576082 
L 149.125208 99.576082 
L 149.125208 99.904934 
L 150.514423 99.904934 
L 150.514423 100.350114 
L 151.903638 100.350114 
L 151.903638 100.79082 
L 153.292852 100.79082 
L 153.292852 100.957483 
L 154.682067 100.957483 
L 154.682067 101.354566 
L 156.071281 101.354566 
L 156.071281 101.617423 
L 157.460496 101.617423 
L 157.460496 101.862384 
L 158.84971 101.862384 
L 158.84971 102.023455 
L 160.238925 102.023455 
L 160.238925 102.173339 
L 161.62814 102.173339 
L 161.62814 102.279601 
L 163.017354 102.279601 
L 163.017354 102.329935 
L 164.406569 102.329935 
L 164.406569 102.437316 
L 165.795783 102.437316 
L 165.795783 102.499954 
L 167.184998 102.499954 
L 167.184998 102.536866 
L 168.574213 102.536866 
L 168.574213 102.59503 
L 169.963427 102.59503 
L 169.963427 102.631942 
L 171.352642 102.631942 
L 171.352642 102.677802 
L 172.741856 102.677802 
L 172.741856 102.691225 
L 174.131071 102.691225 
L 174.131071 102.721426 
L 175.520285 102.721426 
L 175.520285 102.844465 
" clip-path="url(#pc3446a8a52)" style="fill: #e8a4b5; opacity: 0.42"/>
   </g>
   <g id="patch_6">
    <path d="M 10.20375 102.844465 
L 10.20375 102.617401 
L 11.592965 102.617401 
L 11.592965 102.553644 
L 12.982179 102.553644 
L 12.982179 102.477583 
L 14.371394 102.477583 
L 14.371394 102.442908 
L 15.760608 102.442908 
L 15.760608 102.366847 
L 17.149823 102.366847 
L 17.149823 102.25723 
L 18.539038 102.25723 
L 18.539038 102.169984 
L 19.928252 102.169984 
L 19.928252 102.069315 
L 21.317467 102.069315 
L 21.317467 101.914956 
L 22.706681 101.914956 
L 22.706681 101.861266 
L 24.095896 101.861266 
L 24.095896 101.695721 
L 25.48511 101.695721 
L 25.48511 101.477606 
L 26.874325 101.477606 
L 26.874325 101.345617 
L 28.26354 101.345617 
L 28.26354 101.121909 
L 29.652754 101.121909 
L 29.652754 100.977617 
L 31.041969 100.977617 
L 31.041969 100.720352 
L 32.431183 100.720352 
L 32.431183 100.577178 
L 33.820398 100.577178 
L 33.820398 100.387026 
L 35.209613 100.387026 
L 35.209613 100.022381 
L 36.598827 100.022381 
L 36.598827 99.729322 
L 37.988042 99.729322 
L 37.988042 99.432909 
L 39.377256 99.432909 
L 39.377256 99.081686 
L 40.766471 99.081686 
L 40.766471 98.824421 
L 42.155685 98.824421 
L 42.155685 98.419508 
L 43.5449 98.419508 
L 43.5449 97.995581 
L 44.934115 97.995581 
L 44.934115 97.380382 
L 46.323329 97.380382 
L 46.323329 97.273002 
L 47.712544 97.273002 
L 47.712544 96.733864 
L 49.101758 96.733864 
L 49.101758 96.163407 
L 50.490973 96.163407 
L 50.490973 95.768561 
L 51.880188 95.768561 
L 51.880188 95.204815 
L 53.269402 95.204815 
L 53.269402 94.425191 
L 54.658617 94.425191 
L 54.658617 94.071731 
L 56.047831 94.071731 
L 56.047831 93.675767 
L 57.437046 93.675767 
L 57.437046 92.896142 
L 58.82626 92.896142 
L 58.82626 92.29101 
L 60.215475 92.29101 
L 60.215475 91.240698 
L 61.60469 91.240698 
L 61.60469 90.628855 
L 62.993904 90.628855 
L 62.993904 90.003589 
L 64.383119 90.003589 
L 64.383119 89.294433 
L 65.772333 89.294433 
L 65.772333 88.622188 
L 67.161548 88.622188 
L 67.161548 87.841445 
L 68.550763 87.841445 
L 68.550763 87.036094 
L 69.939977 87.036094 
L 69.939977 86.321345 
L 71.329192 86.321345 
L 71.329192 85.652456 
L 72.718406 85.652456 
L 72.718406 85.051799 
L 74.107621 85.051799 
L 74.107621 84.717354 
L 75.496835 84.717354 
L 75.496835 84.115578 
L 76.88605 84.115578 
L 76.88605 83.51492 
L 78.275265 83.51492 
L 78.275265 83.140208 
L 79.664479 83.140208 
L 79.664479 82.54738 
L 81.053694 82.54738 
L 81.053694 81.967975 
L 82.442908 81.967975 
L 82.442908 81.77223 
L 83.832123 81.77223 
L 83.832123 81.445615 
L 85.221338 81.445615 
L 85.221338 81.060836 
L 86.610552 81.060836 
L 86.610552 80.447875 
L 87.999767 80.447875 
L 87.999767 80.435571 
L 89.388981 80.435571 
L 89.388981 80.187254 
L 90.778196 80.187254 
L 90.778196 79.730888 
L 92.16741 79.730888 
L 92.16741 79.950123 
L 93.556625 79.950123 
L 93.556625 79.995983 
L 94.94584 79.995983 
L 94.94584 80.224166 
L 96.335054 80.224166 
L 96.335054 80.166002 
L 97.724269 80.166002 
L 97.724269 80.300227 
L 99.113483 80.300227 
L 99.113483 80.833772 
L 100.502698 80.833772 
L 100.502698 80.959049 
L 101.891913 80.959049 
L 101.891913 81.558588 
L 103.281127 81.558588 
L 103.281127 81.811379 
L 104.670342 81.811379 
L 104.670342 82.49369 
L 106.059556 82.49369 
L 106.059556 82.877351 
L 107.448771 82.877351 
L 107.448771 83.164816 
L 108.837985 83.164816 
L 108.837985 84.077547 
L 110.2272 84.077547 
L 110.2272 84.891847 
L 111.616415 84.891847 
L 111.616415 85.762073 
L 113.005629 85.762073 
L 113.005629 85.985782 
L 114.394844 85.985782 
L 114.394844 86.895158 
L 115.784058 86.895158 
L 115.784058 87.483511 
L 117.173273 87.483511 
L 117.173273 88.171416 
L 118.562488 88.171416 
L 118.562488 88.918602 
L 119.951702 88.918602 
L 119.951702 89.829097 
L 121.340917 89.829097 
L 121.340917 90.308952 
L 122.730131 90.308952 
L 122.730131 91.260832 
L 124.119346 91.260832 
L 124.119346 91.863727 
L 125.50856 91.863727 
L 125.50856 92.310025 
L 126.897775 92.310025 
L 126.897775 93.157881 
L 128.28699 93.157881 
L 128.28699 93.685834 
L 129.676204 93.685834 
L 129.676204 94.249579 
L 131.065419 94.249579 
L 131.065419 94.892742 
L 132.454633 94.892742 
L 132.454633 95.296536 
L 133.843848 95.296536 
L 133.843848 95.701448 
L 135.233063 95.701448 
L 135.233063 96.273024 
L 136.622277 96.273024 
L 136.622277 96.468769 
L 138.011492 96.468769 
L 138.011492 96.960928 
L 139.400706 96.960928 
L 139.400706 97.154436 
L 140.789921 97.154436 
L 140.789921 97.722656 
L 142.179135 97.722656 
L 142.179135 98.284165 
L 143.56835 98.284165 
L 143.56835 98.408323 
L 144.957565 98.408323 
L 144.957565 98.897126 
L 146.346779 98.897126 
L 146.346779 99.196896 
L 147.735994 99.196896 
L 147.735994 99.576082 
L 149.125208 99.576082 
L 149.125208 99.904934 
L 150.514423 99.904934 
L 150.514423 100.350114 
L 151.903638 100.350114 
L 151.903638 100.79082 
L 153.292852 100.79082 
L 153.292852 100.957483 
L 154.682067 100.957483 
L 154.682067 101.354566 
L 156.071281 101.354566 
L 156.071281 101.617423 
L 157.460496 101.617423 
L 157.460496 101.862384 
L 158.84971 101.862384 
L 158.84971 102.023455 
L 160.238925 102.023455 
L 160.238925 102.173339 
L 161.62814 102.173339 
L 161.62814 102.279601 
L 163.017354 102.279601 
L 163.017354 102.329935 
L 164.406569 102.329935 
L 164.406569 102.437316 
L 165.795783 102.437316 
L 165.795783 102.499954 
L 167.184998 102.499954 
L 167.184998 102.536866 
L 168.574213 102.536866 
L 168.574213 102.59503 
L 169.963427 102.59503 
L 169.963427 102.631942 
L 171.352642 102.631942 
L 171.352642 102.677802 
L 172.741856 102.677802 
L 172.741856 102.691225 
L 174.131071 102.691225 
L 174.131071 102.721426 
L 175.520285 102.721426 
L 175.520285 102.844465 
" clip-path="url(#pc3446a8a52)" style="fill: none; stroke: #a93d62; stroke-width: 1.15; stroke-linejoin: miter"/>
   </g>
   <g id="matplotlib.axis_1">
    <g id="text_1">
     <text style="font-size: 7px; font-family: 'Arial', 'Helvetica', 'Liberation Sans', 'DejaVu Sans', sans-serif; text-anchor: middle; fill: #111111" x="92.862018" y="109.854934" transform="rotate(-0 92.862018 109.854934)">Latent value</text>
    </g>
   </g>
   <g id="matplotlib.axis_2">
    <g id="text_2">
     <text style="font-size: 7px; font-family: 'Arial', 'Helvetica', 'Liberation Sans', 'DejaVu Sans', sans-serif; text-anchor: middle; fill: #111111" x="5.730469" y="67.468087" transform="rotate(-90 5.730469 67.468087)">Density</text>
    </g>
   </g>
   <g id="line2d_1">
    <path d="M 10.20375 102.844465 
L 10.535046 102.844465 
L 10.866341 102.844465 
L 11.197637 102.844465 
L 11.528933 102.844465 
L 11.860228 102.844465 
L 12.191524 102.844465 
L 12.52282 102.844465 
L 12.854115 102.844465 
L 13.185411 102.844465 
L 13.516707 102.844465 
L 13.848002 102.844465 
L 14.179298 102.844465 
L 14.510594 102.844465 
L 14.841889 102.844465 
L 15.173185 102.844465 
L 15.504481 102.844465 
L 15.835776 102.844465 
L 16.167072 102.844465 
L 16.498368 102.844465 
L 16.829663 102.844465 
L 17.160959 102.844465 
L 17.492255 102.844465 
L 17.82355 102.844465 
L 18.154846 102.844465 
L 18.486142 102.844465 
L 18.817437 102.844465 
L 19.148733 102.844465 
L 19.480029 102.844465 
L 19.811324 102.844465 
L 20.14262 102.844465 
L 20.473916 102.844465 
L 20.805211 102.844465 
L 21.136507 102.844465 
L 21.467803 102.844465 
L 21.799098 102.844465 
L 22.130394 102.844465 
L 22.46169 102.844465 
L 22.792985 102.844465 
L 23.124281 102.844465 
L 23.455576 102.844465 
L 23.786872 102.844465 
L 24.118168 102.844465 
L 24.449463 102.844465 
L 24.780759 102.844465 
L 25.112055 102.844465 
L 25.44335 102.844465 
L 25.774646 102.844465 
L 26.105942 102.844465 
L 26.437237 102.844465 
L 26.768533 102.844465 
L 27.099829 102.844465 
L 27.431124 102.844465 
L 27.76242 102.844465 
L 28.093716 102.844465 
L 28.425011 102.844465 
L 28.756307 102.844465 
L 29.087603 102.844465 
L 29.418898 102.844465 
L 29.750194 102.844465 
L 30.08149 102.844465 
L 30.412785 102.844465 
L 30.744081 102.844465 
L 31.075377 102.844465 
L 31.406672 102.844465 
L 31.737968 102.844465 
L 32.069264 102.844465 
L 32.400559 102.844465 
L 32.731855 102.844465 
L 33.063151 102.844465 
L 33.394446 102.844465 
L 33.725742 102.844465 
L 34.057038 102.844465 
L 34.388333 102.844465 
L 34.719629 102.844465 
L 35.050925 102.844465 
L 35.38222 102.844465 
L 35.713516 102.844465 
L 36.044812 102.844465 
L 36.376107 102.844465 
L 36.707403 102.844465 
L 37.038699 102.844465 
L 37.369994 102.844465 
L 37.70129 102.844464 
L 38.032586 102.844464 
L 38.363881 102.844464 
L 38.695177 102.844463 
L 39.026473 102.844463 
L 39.357768 102.844462 
L 39.689064 102.844462 
L 40.02036 102.844461 
L 40.351655 102.84446 
L 40.682951 102.844459 
L 41.014247 102.844457 
L 41.345542 102.844455 
L 41.676838 102.844453 
L 42.008134 102.84445 
L 42.339429 102.844447 
L 42.670725 102.844443 
L 43.002021 102.844438 
L 43.333316 102.844433 
L 43.664612 102.844426 
L 43.995908 102.844417 
L 44.327203 102.844407 
L 44.658499 102.844395 
L 44.989795 102.84438 
L 45.32109 102.844363 
L 45.652386 102.844342 
L 45.983682 102.844317 
L 46.314977 102.844287 
L 46.646273 102.844251 
L 46.977569 102.844209 
L 47.308864 102.844159 
L 47.64016 102.844099 
L 47.971455 102.844028 
L 48.302751 102.843944 
L 48.634047 102.843845 
L 48.965342 102.843727 
L 49.296638 102.843589 
L 49.627934 102.843426 
L 49.959229 102.843235 
L 50.290525 102.84301 
L 50.621821 102.842746 
L 50.953116 102.842437 
L 51.284412 102.842076 
L 51.615708 102.841653 
L 51.947003 102.841161 
L 52.278299 102.840588 
L 52.609595 102.83992 
L 52.94089 102.839145 
L 53.272186 102.838246 
L 53.603482 102.837205 
L 53.934777 102.836 
L 54.266073 102.834608 
L 54.597369 102.833002 
L 54.928664 102.831152 
L 55.25996 102.829023 
L 55.591256 102.826577 
L 55.922551 102.82377 
L 56.253847 102.820554 
L 56.585143 102.816875 
L 56.916438 102.812671 
L 57.247734 102.807873 
L 57.57903 102.802407 
L 57.910325 102.796187 
L 58.241621 102.789119 
L 58.572917 102.781099 
L 58.904212 102.772011 
L 59.235508 102.761727 
L 59.566804 102.750107 
L 59.898099 102.736995 
L 60.229395 102.722219 
L 60.560691 102.705593 
L 60.891986 102.686911 
L 61.223282 102.665948 
L 61.554578 102.642459 
L 61.885873 102.616176 
L 62.217169 102.586809 
L 62.548465 102.554043 
L 62.87976 102.517536 
L 63.211056 102.476918 
L 63.542352 102.431791 
L 63.873647 102.381726 
L 64.204943 102.326261 
L 64.536239 102.264904 
L 64.867534 102.197124 
L 65.19883 102.122357 
L 65.530126 102.040003 
L 65.861421 101.949421 
L 66.192717 101.849936 
L 66.524013 101.740829 
L 66.855308 101.621345 
L 67.186604 101.490688 
L 67.5179 101.348022 
L 67.849195 101.192472 
L 68.180491 101.023125 
L 68.511787 100.83903 
L 68.843082 100.639198 
L 69.174378 100.422607 
L 69.505674 100.188202 
L 69.836969 99.934898 
L 70.168265 99.661583 
L 70.499561 99.367122 
L 70.830856 99.050358 
L 71.162152 98.710123 
L 71.493448 98.345236 
L 71.824743 97.954511 
L 72.156039 97.536766 
L 72.487334 97.090824 
L 72.81863 96.615526 
L 73.149926 96.109733 
L 73.481221 95.572338 
L 73.812517 95.002273 
L 74.143813 94.398518 
L 74.475108 93.760108 
L 74.806404 93.086148 
L 75.1377 92.375819 
L 75.468995 91.628387 
L 75.800291 90.843217 
L 76.131587 90.01978 
L 76.462882 89.157666 
L 76.794178 88.256592 
L 77.125474 87.316413 
L 77.456769 86.337135 
L 77.788065 85.318917 
L 78.119361 84.262087 
L 78.450656 83.167149 
L 78.781952 82.034789 
L 79.113248 80.865882 
L 79.444543 79.661502 
L 79.775839 78.422923 
L 80.107135 77.151623 
L 80.43843 75.849294 
L 80.769726 74.517834 
L 81.101022 73.159355 
L 81.432317 71.776179 
L 81.763613 70.370836 
L 82.094909 68.946061 
L 82.426204 67.504788 
L 82.7575 66.050144 
L 83.088796 64.58544 
L 83.420091 63.114159 
L 83.751387 61.639949 
L 84.082683 60.166606 
L 84.413978 58.698062 
L 84.745274 57.238367 
L 85.07657 55.791672 
L 85.407865 54.362212 
L 85.739161 52.954284 
L 86.070457 51.572229 
L 86.401752 50.220407 
L 86.733048 48.903177 
L 87.064344 47.624875 
L 87.395639 46.389786 
L 87.726935 45.202125 
L 88.058231 44.066011 
L 88.389526 42.985443 
L 88.720822 41.96428 
L 89.052118 41.006212 
L 89.383413 40.114745 
L 89.714709 39.293172 
L 90.046005 38.544561 
L 90.3773 37.871729 
L 90.708596 37.277228 
L 91.039892 36.763329 
L 91.371187 36.332003 
L 91.702483 35.984917 
L 92.033779 35.723414 
L 92.365074 35.548511 
L 92.69637 35.460888 
L 93.027666 35.460888 
L 93.358961 35.548511 
L 93.690257 35.723414 
L 94.021553 35.984917 
L 94.352848 36.332003 
L 94.684144 36.763329 
L 95.01544 37.277228 
L 95.346735 37.871729 
L 95.678031 38.544561 
L 96.009327 39.293172 
L 96.340622 40.114745 
L 96.671918 41.006212 
L 97.003213 41.96428 
L 97.334509 42.985443 
L 97.665805 44.066011 
L 97.9971 45.202125 
L 98.328396 46.389786 
L 98.659692 47.624875 
L 98.990987 48.903177 
L 99.322283 50.220407 
L 99.653579 51.572229 
L 99.984874 52.954284 
L 100.31617 54.362212 
L 100.647466 55.791672 
L 100.978761 57.238367 
L 101.310057 58.698062 
L 101.641353 60.166606 
L 101.972648 61.639949 
L 102.303944 63.114159 
L 102.63524 64.58544 
L 102.966535 66.050144 
L 103.297831 67.504788 
L 103.629127 68.946061 
L 103.960422 70.370836 
L 104.291718 71.776179 
L 104.623014 73.159355 
L 104.954309 74.517834 
L 105.285605 75.849294 
L 105.616901 77.151623 
L 105.948196 78.422923 
L 106.279492 79.661502 
L 106.610788 80.865882 
L 106.942083 82.034789 
L 107.273379 83.167149 
L 107.604675 84.262087 
L 107.93597 85.318917 
L 108.267266 86.337135 
L 108.598562 87.316413 
L 108.929857 88.256592 
L 109.261153 89.157666 
L 109.592449 90.01978 
L 109.923744 90.843217 
L 110.25504 91.628387 
L 110.586336 92.375819 
L 110.917631 93.086148 
L 111.248927 93.760108 
L 111.580223 94.398518 
L 111.911518 95.002273 
L 112.242814 95.572338 
L 112.57411 96.109733 
L 112.905405 96.615526 
L 113.236701 97.090824 
L 113.567997 97.536766 
L 113.899292 97.954511 
L 114.230588 98.345236 
L 114.561884 98.710123 
L 114.893179 99.050358 
L 115.224475 99.367122 
L 115.555771 99.661583 
L 115.887066 99.934898 
L 116.218362 100.188202 
L 116.549658 100.422607 
L 116.880953 100.639198 
L 117.212249 100.83903 
L 117.543545 101.023125 
L 117.87484 101.192472 
L 118.206136 101.348022 
L 118.537432 101.490688 
L 118.868727 101.621345 
L 119.200023 101.740829 
L 119.531319 101.849936 
L 119.862614 101.949421 
L 120.19391 102.040003 
L 120.525206 102.122357 
L 120.856501 102.197124 
L 121.187797 102.264904 
L 121.519092 102.326261 
L 121.850388 102.381726 
L 122.181684 102.431791 
L 122.512979 102.476918 
L 122.844275 102.517536 
L 123.175571 102.554043 
L 123.506866 102.586809 
L 123.838162 102.616176 
L 124.169458 102.642459 
L 124.500753 102.665948 
L 124.832049 102.686911 
L 125.163345 102.705593 
L 125.49464 102.722219 
L 125.825936 102.736995 
L 126.157232 102.750107 
L 126.488527 102.761727 
L 126.819823 102.772011 
L 127.151119 102.781099 
L 127.482414 102.789119 
L 127.81371 102.796187 
L 128.145006 102.802407 
L 128.476301 102.807873 
L 128.807597 102.812671 
L 129.138893 102.816875 
L 129.470188 102.820554 
L 129.801484 102.82377 
L 130.13278 102.826577 
L 130.464075 102.829023 
L 130.795371 102.831152 
L 131.126667 102.833002 
L 131.457962 102.834608 
L 131.789258 102.836 
L 132.120554 102.837205 
L 132.451849 102.838246 
L 132.783145 102.839145 
L 133.114441 102.83992 
L 133.445736 102.840588 
L 133.777032 102.841161 
L 134.108328 102.841653 
L 134.439623 102.842076 
L 134.770919 102.842437 
L 135.102215 102.842746 
L 135.43351 102.84301 
L 135.764806 102.843235 
L 136.096102 102.843426 
L 136.427397 102.843589 
L 136.758693 102.843727 
L 137.089989 102.843845 
L 137.421284 102.843944 
L 137.75258 102.844028 
L 138.083876 102.844099 
L 138.415171 102.844159 
L 138.746467 102.844209 
L 139.077763 102.844251 
L 139.409058 102.844287 
L 139.740354 102.844317 
L 140.07165 102.844342 
L 140.402945 102.844363 
L 140.734241 102.84438 
L 141.065537 102.844395 
L 141.396832 102.844407 
L 141.728128 102.844417 
L 142.059424 102.844426 
L 142.390719 102.844433 
L 142.722015 102.844438 
L 143.053311 102.844443 
L 143.384606 102.844447 
L 143.715902 102.84445 
L 144.047198 102.844453 
L 144.378493 102.844455 
L 144.709789 102.844457 
L 145.041085 102.844459 
L 145.37238 102.84446 
L 145.703676 102.844461 
L 146.034971 102.844462 
L 146.366267 102.844462 
L 146.697563 102.844463 
L 147.028858 102.844463 
L 147.360154 102.844464 
L 147.69145 102.844464 
L 148.022745 102.844464 
L 148.354041 102.844465 
L 148.685337 102.844465 
L 149.016632 102.844465 
L 149.347928 102.844465 
L 149.679224 102.844465 
L 150.010519 102.844465 
L 150.341815 102.844465 
L 150.673111 102.844465 
L 151.004406 102.844465 
L 151.335702 102.844465 
L 151.666998 102.844465 
L 151.998293 102.844465 
L 152.329589 102.844465 
L 152.660885 102.844465 
L 152.99218 102.844465 
L 153.323476 102.844465 
L 153.654772 102.844465 
L 153.986067 102.844465 
L 154.317363 102.844465 
L 154.648659 102.844465 
L 154.979954 102.844465 
L 155.31125 102.844465 
L 155.642546 102.844465 
L 155.973841 102.844465 
L 156.305137 102.844465 
L 156.636433 102.844465 
L 156.967728 102.844465 
L 157.299024 102.844465 
L 157.63032 102.844465 
L 157.961615 102.844465 
L 158.292911 102.844465 
L 158.624207 102.844465 
L 158.955502 102.844465 
L 159.286798 102.844465 
L 159.618094 102.844465 
L 159.949389 102.844465 
L 160.280685 102.844465 
L 160.611981 102.844465 
L 160.943276 102.844465 
L 161.274572 102.844465 
L 161.605868 102.844465 
L 161.937163 102.844465 
L 162.268459 102.844465 
L 162.599755 102.844465 
L 162.93105 102.844465 
L 163.262346 102.844465 
L 163.593642 102.844465 
L 163.924937 102.844465 
L 164.256233 102.844465 
L 164.587529 102.844465 
L 164.918824 102.844465 
L 165.25012 102.844465 
L 165.581416 102.844465 
L 165.912711 102.844465 
L 166.244007 102.844465 
L 166.575303 102.844465 
L 166.906598 102.844465 
L 167.237894 102.844465 
L 167.56919 102.844465 
L 167.900485 102.844465 
L 168.231781 102.844465 
L 168.563077 102.844465 
L 168.894372 102.844465 
L 169.225668 102.844465 
L 169.556964 102.844465 
L 169.888259 102.844465 
L 170.219555 102.844465 
L 170.550851 102.844465 
L 170.882146 102.844465 
L 171.213442 102.844465 
L 171.544737 102.844465 
L 171.876033 102.844465 
L 172.207329 102.844465 
L 172.538624 102.844465 
L 172.86992 102.844465 
L 173.201216 102.844465 
L 173.532511 102.844465 
L 173.863807 102.844465 
L 174.195103 102.844465 
L 174.526398 102.844465 
L 174.857694 102.844465 
L 175.18899 102.844465 
L 175.520285 102.844465 
" clip-path="url(#pc3446a8a52)" style="fill: none; stroke-dasharray: 4,2; stroke-dashoffset: 0; stroke: #666666"/>
   </g>
   <g id="patch_7">
    <path d="M 10.20375 102.844465 
L 10.20375 32.091709 
" style="fill: none; stroke: #7a8796; stroke-width: 0.8; stroke-linejoin: miter; stroke-linecap: square"/>
   </g>
   <g id="patch_8">
    <path d="M 10.20375 102.844465 
L 175.520285 102.844465 
" style="fill: none; stroke: #7a8796; stroke-width: 0.8; stroke-linejoin: miter; stroke-linecap: square"/>
   </g>
   <g id="text_3">
    <text style="font-size: 7.5px; font-family: 'Arial', 'Helvetica', 'Liberation Sans', 'DejaVu Sans', sans-serif; text-anchor: middle; fill: #111111" x="92.862018" y="28.091709" transform="rotate(-0 92.862018 28.091709)">Clean latent values</text>
   </g>
   <g id="legend_1">
    <g id="line2d_2">
     <path d="M 22.642213 5.697578 
L 32.392213 5.697578 
" style="fill: none; stroke: #316fa8; stroke-width: 1.15; stroke-linecap: square"/>
    </g>
    <g id="text_4">
     <text style="font-size: 6.5px; font-family: 'Arial', 'Helvetica', 'Liberation Sans', 'DejaVu Sans', sans-serif; text-anchor: start; fill: #111111" x="37.592213" y="7.972578" transform="rotate(-0 37.592213 7.972578)">K562 PatchAE</text>
    </g>
    <g id="line2d_3">
     <path d="M 22.642213 14.892031 
L 32.392213 14.892031 
" style="fill: none; stroke: #a93d62; stroke-width: 1.15; stroke-linecap: square"/>
    </g>
    <g id="text_5">
     <text style="font-size: 6.5px; font-family: 'Arial', 'Helvetica', 'Liberation Sans', 'DejaVu Sans', sans-serif; text-anchor: start; fill: #111111" x="37.592213" y="17.167031" transform="rotate(-0 37.592213 17.167031)">Cross-cell PatchAE</text>
    </g>
    <g id="line2d_4">
     <path d="M 100.080572 5.697578 
L 104.955572 5.697578 
L 109.830572 5.697578 
" style="fill: none; stroke-dasharray: 4,2; stroke-dashoffset: 0; stroke: #666666"/>
    </g>
    <g id="text_6">
     <text style="font-size: 6.5px; font-family: 'Arial', 'Helvetica', 'Liberation Sans', 'DejaVu Sans', sans-serif; text-anchor: start; fill: #111111" x="115.030572" y="7.972578" transform="rotate(-0 115.030572 7.972578)">Standard normal</text>
    </g>
   </g>
  </g>
 </g>
 <defs>
  <clipPath id="pc3446a8a52">
   <rect x="10.20375" y="32.091709" width="165.316535" height="70.752756"/>
  </clipPath>
 </defs>
</svg>
